STARTFONT 2.1
COMMENT $XConsortium: lubR12.bdf,v 1.9 94/04/02 16:10:54 gildea Exp $
COMMENT  (c) Copyright Bigelow & Holmes 1986, 1985. Lucida is a registered
COMMENT  trademark of Bigelow & Holmes. See LEGAL NOTICE file for terms 
COMMENT  of the license. 
COMMENT  
COMMENT  Translation to ISO8859-2 by Cub Soft;  Petr.Kolar@vslib.cz
COMMENT  
FONT -B&H-LucidaBright-Medium-R-Normal--12-120-75-75-P-68-ISO8859-2
SIZE 12 72 72
FONTBOUNDINGBOX 18 15 -6 -3
STARTPROPERTIES 20
COMMENT Begin LogicalFontDescription
FONTNAME_REGISTRY ""
FOUNDRY "B&H"
FAMILY_NAME "LucidaBright"
WEIGHT_NAME "Medium"
SLANT "R"
SETWIDTH_NAME "Normal"
ADD_STYLE_NAME ""
PIXEL_SIZE 12
POINT_SIZE 120
RESOLUTION_X 75
RESOLUTION_Y 75
SPACING "P"
AVERAGE_WIDTH 68
CHARSET_REGISTRY "ISO8859"
CHARSET_ENCODING "2"
COMMENT END LogicalFontDescription
FONT_ASCENT 11
FONT_DESCENT 3
DEFAULT_CHAR 0
COPYRIGHT "Copyright Bigelow & Holmes 1986, 1985., Copyright 1996 Cub Soft"
FACE_NAME "Lucida Bright"
ENDPROPERTIES
CHARS 191
STARTCHAR space
ENCODING 32
SWIDTH 333 0
DWIDTH 4 0
BBX 1 1 0 0
BITMAP
00
ENDCHAR
STARTCHAR exclam
ENCODING 33
SWIDTH 265 0
DWIDTH 3 0
BBX 1 9 1 0
BITMAP
80
80
80
80
80
80
80
00
80
ENDCHAR
STARTCHAR quotedbl
ENCODING 34
SWIDTH 386 0
DWIDTH 5 0
BBX 2 3 1 6
BITMAP
c0
c0
c0
ENDCHAR
STARTCHAR numbersign
ENCODING 35
SWIDTH 608 0
DWIDTH 7 0
BBX 7 9 0 0
BITMAP
14
24
7e
28
28
fc
48
50
50
ENDCHAR
STARTCHAR dollar
ENCODING 36
SWIDTH 608 0
DWIDTH 7 0
BBX 5 10 1 -1
BITMAP
38
e8
a0
e0
70
28
a8
a8
f0
20
ENDCHAR
STARTCHAR percent
ENCODING 37
SWIDTH 675 0
DWIDTH 8 0
BBX 6 9 1 0
BITMAP
44
a8
a8
50
38
34
54
54
88
ENDCHAR
STARTCHAR ampersand
ENCODING 38
SWIDTH 690 0
DWIDTH 8 0
BBX 8 9 0 0
BITMAP
30
48
48
70
97
92
8a
cc
7b
ENDCHAR
STARTCHAR apostrophe
ENCODING 39
SWIDTH 265 0
DWIDTH 3 0
BBX 1 3 1 6
BITMAP
80
80
80
ENDCHAR
STARTCHAR parenleft
ENCODING 40
SWIDTH 316 0
DWIDTH 4 0
BBX 3 11 0 -2
BITMAP
20
40
80
80
80
80
80
80
80
40
20
ENDCHAR
STARTCHAR parenright
ENCODING 41
SWIDTH 316 0
DWIDTH 4 0
BBX 3 11 0 -2
BITMAP
80
40
20
20
20
20
20
20
20
40
80
ENDCHAR
STARTCHAR asterisk
ENCODING 42
SWIDTH 470 0
DWIDTH 6 0
BBX 5 4 0 5
BITMAP
20
f8
50
50
ENDCHAR
STARTCHAR plus
ENCODING 43
SWIDTH 608 0
DWIDTH 7 0
BBX 7 8 0 0
BITMAP
10
10
10
10
fe
10
10
10
ENDCHAR
STARTCHAR comma
ENCODING 44
SWIDTH 265 0
DWIDTH 3 0
BBX 1 3 1 -2
BITMAP
80
80
80
ENDCHAR
STARTCHAR minus
ENCODING 45
SWIDTH 608 0
DWIDTH 7 0
BBX 7 1 0 3
BITMAP
fe
ENDCHAR
STARTCHAR period
ENCODING 46
SWIDTH 265 0
DWIDTH 3 0
BBX 1 1 1 0
BITMAP
80
ENDCHAR
STARTCHAR slash
ENCODING 47
SWIDTH 512 0
DWIDTH 6 0
BBX 6 11 0 -2
BITMAP
04
08
08
18
10
30
20
60
40
40
80
ENDCHAR
STARTCHAR zero
ENCODING 48
SWIDTH 608 0
DWIDTH 7 0
BBX 6 9 1 0
BITMAP
30
48
84
84
84
84
84
48
30
ENDCHAR
STARTCHAR one
ENCODING 49
SWIDTH 608 0
DWIDTH 7 0
BBX 5 9 1 0
BITMAP
e0
20
20
20
20
20
20
20
f8
ENDCHAR
STARTCHAR two
ENCODING 50
SWIDTH 608 0
DWIDTH 7 0
BBX 5 9 1 0
BITMAP
70
88
88
08
10
20
40
80
f8
ENDCHAR
STARTCHAR three
ENCODING 51
SWIDTH 608 0
DWIDTH 7 0
BBX 5 9 1 0
BITMAP
f0
88
08
08
70
08
08
88
f0
ENDCHAR
STARTCHAR four
ENCODING 52
SWIDTH 608 0
DWIDTH 7 0
BBX 6 9 0 0
BITMAP
18
18
28
48
c8
fc
08
08
1c
ENDCHAR
STARTCHAR five
ENCODING 53
SWIDTH 608 0
DWIDTH 7 0
BBX 5 9 1 0
BITMAP
f8
80
80
f0
18
08
08
98
f0
ENDCHAR
STARTCHAR six
ENCODING 54
SWIDTH 608 0
DWIDTH 7 0
BBX 6 9 1 0
BITMAP
3c
44
80
b8
c4
84
84
4c
38
ENDCHAR
STARTCHAR seven
ENCODING 55
SWIDTH 608 0
DWIDTH 7 0
BBX 6 9 1 0
BITMAP
fc
04
08
10
30
60
40
c0
80
ENDCHAR
STARTCHAR eight
ENCODING 56
SWIDTH 608 0
DWIDTH 7 0
BBX 6 9 1 0
BITMAP
78
84
84
48
78
8c
84
cc
78
ENDCHAR
STARTCHAR nine
ENCODING 57
SWIDTH 608 0
DWIDTH 7 0
BBX 6 9 1 0
BITMAP
70
c8
84
84
8c
74
04
88
f0
ENDCHAR
STARTCHAR colon
ENCODING 58
SWIDTH 265 0
DWIDTH 3 0
BBX 1 6 1 0
BITMAP
80
00
00
00
00
80
ENDCHAR
STARTCHAR semicolon
ENCODING 59
SWIDTH 265 0
DWIDTH 3 0
BBX 1 8 1 -2
BITMAP
80
00
00
00
80
80
80
80
ENDCHAR
STARTCHAR less
ENCODING 60
SWIDTH 608 0
DWIDTH 7 0
BBX 7 8 0 0
BITMAP
02
0c
30
e0
60
30
0c
02
ENDCHAR
STARTCHAR equal
ENCODING 61
SWIDTH 608 0
DWIDTH 7 0
BBX 7 3 0 2
BITMAP
fe
00
fe
ENDCHAR
STARTCHAR greater
ENCODING 62
SWIDTH 608 0
DWIDTH 7 0
BBX 7 8 0 0
BITMAP
80
60
18
0c
0e
18
60
80
ENDCHAR
STARTCHAR question
ENCODING 63
SWIDTH 480 0
DWIDTH 6 0
BBX 5 9 0 0
BITMAP
f0
88
88
10
30
20
20
00
20
ENDCHAR
STARTCHAR at
ENCODING 64
SWIDTH 873 0
DWIDTH 10 0
BBX 10 9 0 0
BITMAP
0f00
3080
4e40
8f40
9640
96c0
9f80
6000
3e00
ENDCHAR
STARTCHAR A
ENCODING 65
SWIDTH 744 0
DWIDTH 9 0
BBX 9 9 0 0
BITMAP
0800
1800
1c00
3400
2600
3e00
4200
4100
c380
ENDCHAR
STARTCHAR B
ENCODING 66
SWIDTH 609 0
DWIDTH 7 0
BBX 6 9 0 0
BITMAP
f8
44
44
48
78
4c
44
44
f8
ENDCHAR
STARTCHAR C
ENCODING 67
SWIDTH 695 0
DWIDTH 8 0
BBX 7 9 1 0
BITMAP
3e
42
82
80
80
80
c0
62
3c
ENDCHAR
STARTCHAR D
ENCODING 68
SWIDTH 768 0
DWIDTH 9 0
BBX 8 9 0 0
BITMAP
fc
42
41
41
41
41
41
42
fc
ENDCHAR
STARTCHAR E
ENCODING 69
SWIDTH 566 0
DWIDTH 7 0
BBX 6 9 0 0
BITMAP
fc
44
40
48
78
48
40
44
fc
ENDCHAR
STARTCHAR F
ENCODING 70
SWIDTH 548 0
DWIDTH 7 0
BBX 6 9 0 0
BITMAP
fc
44
40
48
78
48
40
40
e0
ENDCHAR
STARTCHAR G
ENCODING 71
SWIDTH 732 0
DWIDTH 9 0
BBX 8 9 1 0
BITMAP
3e
42
82
80
80
87
c2
62
3e
ENDCHAR
STARTCHAR H
ENCODING 72
SWIDTH 771 0
DWIDTH 9 0
BBX 9 9 0 0
BITMAP
e380
4100
4100
4100
7f00
4100
4100
4100
e380
ENDCHAR
STARTCHAR I
ENCODING 73
SWIDTH 325 0
DWIDTH 4 0
BBX 3 9 0 0
BITMAP
e0
40
40
40
40
40
40
40
e0
ENDCHAR
STARTCHAR J
ENCODING 74
SWIDTH 422 0
DWIDTH 5 0
BBX 5 11 0 -2
BITMAP
38
10
10
10
10
10
10
10
10
90
e0
ENDCHAR
STARTCHAR K
ENCODING 75
SWIDTH 708 0
DWIDTH 8 0
BBX 8 9 0 0
BITMAP
ee
44
48
50
60
50
4c
46
ef
ENDCHAR
STARTCHAR L
ENCODING 76
SWIDTH 557 0
DWIDTH 7 0
BBX 6 9 0 0
BITMAP
e0
40
40
40
40
40
40
44
fc
ENDCHAR
STARTCHAR M
ENCODING 77
SWIDTH 860 0
DWIDTH 10 0
BBX 10 9 0 0
BITMAP
e1c0
6180
7180
5280
5280
4c80
4c80
4880
e1c0
ENDCHAR
STARTCHAR N
ENCODING 78
SWIDTH 751 0
DWIDTH 9 0
BBX 8 9 1 0
BITMAP
c7
62
62
52
4a
4a
46
42
e2
ENDCHAR
STARTCHAR O
ENCODING 79
SWIDTH 777 0
DWIDTH 9 0
BBX 8 9 1 0
BITMAP
3c
42
81
81
81
81
81
42
3c
ENDCHAR
STARTCHAR P
ENCODING 80
SWIDTH 573 0
DWIDTH 7 0
BBX 6 9 0 0
BITMAP
f8
44
44
4c
78
40
40
40
e0
ENDCHAR
STARTCHAR Q
ENCODING 81
SWIDTH 778 0
DWIDTH 9 0
BBX 10 11 0 -2
BITMAP
3c00
4200
8100
8100
8100
8100
8100
4200
3e00
0600
01c0
ENDCHAR
STARTCHAR R
ENCODING 82
SWIDTH 679 0
DWIDTH 8 0
BBX 8 9 0 0
BITMAP
f8
44
44
44
78
48
4c
44
e3
ENDCHAR
STARTCHAR S
ENCODING 83
SWIDTH 542 0
DWIDTH 7 0
BBX 5 9 1 0
BITMAP
78
88
88
c0
30
18
88
88
f0
ENDCHAR
STARTCHAR T
ENCODING 84
SWIDTH 663 0
DWIDTH 8 0
BBX 7 9 0 0
BITMAP
fe
10
10
10
10
10
10
10
38
ENDCHAR
STARTCHAR U
ENCODING 85
SWIDTH 719 0
DWIDTH 9 0
BBX 8 9 0 0
BITMAP
e7
42
42
42
42
42
42
66
3c
ENDCHAR
STARTCHAR V
ENCODING 86
SWIDTH 699 0
DWIDTH 8 0
BBX 8 9 0 0
BITMAP
e3
43
42
22
24
14
14
18
08
ENDCHAR
STARTCHAR W
ENCODING 87
SWIDTH 925 0
DWIDTH 11 0
BBX 11 9 0 0
BITMAP
e460
4440
4e40
2a40
2a80
2a80
3180
1100
1100
ENDCHAR
STARTCHAR X
ENCODING 88
SWIDTH 657 0
DWIDTH 8 0
BBX 8 9 0 0
BITMAP
f3
62
24
1c
18
38
64
42
c7
ENDCHAR
STARTCHAR Y
ENCODING 89
SWIDTH 678 0
DWIDTH 8 0
BBX 8 9 0 0
BITMAP
e7
42
26
3c
18
10
10
10
38
ENDCHAR
STARTCHAR Z
ENCODING 90
SWIDTH 633 0
DWIDTH 8 0
BBX 6 9 1 0
BITMAP
fc
88
18
10
20
20
40
44
fc
ENDCHAR
STARTCHAR bracketleft
ENCODING 91
SWIDTH 316 0
DWIDTH 4 0
BBX 2 11 1 -2
BITMAP
c0
80
80
80
80
80
80
80
80
80
c0
ENDCHAR
STARTCHAR backslash
ENCODING 92
SWIDTH 512 0
DWIDTH 6 0
BBX 6 11 0 -2
BITMAP
80
40
40
60
20
30
10
18
08
08
04
ENDCHAR
STARTCHAR bracketright
ENCODING 93
SWIDTH 316 0
DWIDTH 4 0
BBX 2 11 1 -2
BITMAP
c0
40
40
40
40
40
40
40
40
40
c0
ENDCHAR
STARTCHAR asciicircum
ENCODING 94
SWIDTH 608 0
DWIDTH 7 0
BBX 7 8 0 1
BITMAP
10
10
28
28
44
44
c6
82
ENDCHAR
STARTCHAR underscore
ENCODING 95
SWIDTH 500 0
DWIDTH 6 0
BBX 5 1 1 -1
BITMAP
f8
ENDCHAR
STARTCHAR grave
ENCODING 96
SWIDTH 602 0
DWIDTH 7 0
BBX 3 1 2 8
BITMAP
e0
ENDCHAR
STARTCHAR a
ENCODING 97
SWIDTH 543 0
DWIDTH 7 0
BBX 6 6 0 0
BITMAP
f0
08
78
88
88
7c
ENDCHAR
STARTCHAR b
ENCODING 98
SWIDTH 611 0
DWIDTH 7 0
BBX 7 9 0 0
BITMAP
c0
40
40
7c
46
42
42
42
7c
ENDCHAR
STARTCHAR c
ENCODING 99
SWIDTH 509 0
DWIDTH 6 0
BBX 5 6 1 0
BITMAP
78
c8
80
80
c0
78
ENDCHAR
STARTCHAR d
ENCODING 100
SWIDTH 642 0
DWIDTH 8 0
BBX 7 9 1 0
BITMAP
0c
04
04
7c
84
84
84
c4
7e
ENDCHAR
STARTCHAR e
ENCODING 101
SWIDTH 530 0
DWIDTH 6 0
BBX 5 6 1 0
BITMAP
70
88
f8
80
c0
78
ENDCHAR
STARTCHAR f
ENCODING 102
SWIDTH 404 0
DWIDTH 5 0
BBX 5 9 0 0
BITMAP
78
48
40
f0
40
40
40
40
f0
ENDCHAR
STARTCHAR g
ENCODING 103
SWIDTH 571 0
DWIDTH 7 0
BBX 6 8 1 -2
BITMAP
7c
88
88
70
80
fc
84
78
ENDCHAR
STARTCHAR h
ENCODING 104
SWIDTH 633 0
DWIDTH 8 0
BBX 7 9 0 0
BITMAP
c0
40
40
7c
44
44
44
44
ee
ENDCHAR
STARTCHAR i
ENCODING 105
SWIDTH 307 0
DWIDTH 4 0
BBX 3 9 0 0
BITMAP
40
00
00
c0
40
40
40
40
e0
ENDCHAR
STARTCHAR j
ENCODING 106
SWIDTH 346 0
DWIDTH 4 0
BBX 3 11 0 -2
BITMAP
20
00
00
60
20
20
20
20
20
a0
e0
ENDCHAR
STARTCHAR k
ENCODING 107
SWIDTH 599 0
DWIDTH 7 0
BBX 7 9 0 0
BITMAP
c0
40
40
4e
58
70
50
48
e6
ENDCHAR
STARTCHAR l
ENCODING 108
SWIDTH 313 0
DWIDTH 4 0
BBX 3 9 0 0
BITMAP
c0
40
40
40
40
40
40
40
e0
ENDCHAR
STARTCHAR m
ENCODING 109
SWIDTH 946 0
DWIDTH 11 0
BBX 11 6 0 0
BITMAP
ffc0
4440
4440
4440
4440
eee0
ENDCHAR
STARTCHAR n
ENCODING 110
SWIDTH 633 0
DWIDTH 8 0
BBX 7 6 0 0
BITMAP
fc
44
44
44
44
ee
ENDCHAR
STARTCHAR o
ENCODING 111
SWIDTH 602 0
DWIDTH 7 0
BBX 6 6 1 0
BITMAP
78
cc
84
84
cc
78
ENDCHAR
STARTCHAR p
ENCODING 112
SWIDTH 642 0
DWIDTH 8 0
BBX 7 8 0 -2
BITMAP
fc
46
42
42
42
7c
40
e0
ENDCHAR
STARTCHAR q
ENCODING 113
SWIDTH 617 0
DWIDTH 7 0
BBX 7 8 1 -2
BITMAP
7c
84
84
84
c4
7c
04
0e
ENDCHAR
STARTCHAR r
ENCODING 114
SWIDTH 440 0
DWIDTH 5 0
BBX 4 6 1 0
BITMAP
f0
50
40
40
40
e0
ENDCHAR
STARTCHAR s
ENCODING 115
SWIDTH 504 0
DWIDTH 6 0
BBX 5 6 1 0
BITMAP
78
88
e8
b8
88
f0
ENDCHAR
STARTCHAR t
ENCODING 116
SWIDTH 392 0
DWIDTH 5 0
BBX 4 8 0 0
BITMAP
40
40
f0
40
40
40
40
70
ENDCHAR
STARTCHAR u
ENCODING 117
SWIDTH 633 0
DWIDTH 8 0
BBX 7 6 0 0
BITMAP
cc
44
44
44
44
7e
ENDCHAR
STARTCHAR v
ENCODING 118
SWIDTH 545 0
DWIDTH 7 0
BBX 7 6 0 0
BITMAP
e6
46
64
28
18
10
ENDCHAR
STARTCHAR w
ENCODING 119
SWIDTH 795 0
DWIDTH 10 0
BBX 10 6 0 0
BITMAP
e4c0
4cc0
4c80
3280
3300
2100
ENDCHAR
STARTCHAR x
ENCODING 120
SWIDTH 557 0
DWIDTH 7 0
BBX 7 6 0 0
BITMAP
e6
64
38
38
4c
ce
ENDCHAR
STARTCHAR y
ENCODING 121
SWIDTH 551 0
DWIDTH 7 0
BBX 7 8 0 -2
BITMAP
e6
46
64
2c
18
10
10
60
ENDCHAR
STARTCHAR z
ENCODING 122
SWIDTH 595 0
DWIDTH 7 0
BBX 5 6 1 0
BITMAP
f8
90
20
60
48
f8
ENDCHAR
STARTCHAR braceleft
ENCODING 123
SWIDTH 343 0
DWIDTH 4 0
BBX 3 11 0 -2
BITMAP
20
40
40
40
40
80
40
40
40
40
20
ENDCHAR
STARTCHAR bar
ENCODING 124
SWIDTH 241 0
DWIDTH 3 0
BBX 1 11 1 -2
BITMAP
80
80
80
80
80
80
80
80
80
80
80
ENDCHAR
STARTCHAR braceright
ENCODING 125
SWIDTH 343 0
DWIDTH 4 0
BBX 3 11 1 -2
BITMAP
80
40
40
40
40
20
40
40
40
40
80
ENDCHAR
STARTCHAR asciitilde
ENCODING 126
SWIDTH 608 0
DWIDTH 7 0
BBX 7 3 0 2
BITMAP
62
92
8c
ENDCHAR
STARTCHAR nobreakspace
ENCODING 160
SWIDTH 333 0
DWIDTH 4 0
BBX 1 1 0 0
BITMAP
00
ENDCHAR
STARTCHAR Aogonek
ENCODING 161
SWIDTH 744 0
DWIDTH 9 0
BBX 9 10 0 -1
BITMAP
0800
1800
1c00
3400
2600
3e00
4200
4100
c380
0c00
ENDCHAR
STARTCHAR breve
ENCODING 162
SWIDTH 602 0
DWIDTH 7 0
BBX 4 1 2 8
BITMAP
f0
ENDCHAR
STARTCHAR Lstroke
ENCODING 163
SWIDTH 557 0
DWIDTH 7 0
BBX 6 9 0 0
BITMAP
e0
40
40
60
c0
c0
40
44
fc
ENDCHAR
STARTCHAR currency
ENCODING 164
SWIDTH 608 0
DWIDTH 7 0
BBX 7 7 0 1
BITMAP
82
7c
44
44
44
7c
82
ENDCHAR
STARTCHAR Lcaron
ENCODING 165
SWIDTH 557 0
DWIDTH 7 0
BBX 6 10 0 0
BITMAP
08
e8
48
40
40
40
40
40
44
fc
ENDCHAR
STARTCHAR Sacute
ENCODING 166
SWIDTH 542 0
DWIDTH 7 0
BBX 5 11 1 0
BITMAP
70
00
78
88
88
c0
30
18
88
88
f0
ENDCHAR
STARTCHAR section
ENCODING 167
SWIDTH 608 0
DWIDTH 7 0
BBX 5 11 1 -2
BITMAP
78
88
80
40
b0
88
68
10
08
88
f0
ENDCHAR
STARTCHAR diaeresis
ENCODING 168
SWIDTH 602 0
DWIDTH 7 0
BBX 3 1 2 8
BITMAP
a0
ENDCHAR
STARTCHAR Scaron
ENCODING 169
SWIDTH 542 0
DWIDTH 7 0
BBX 5 11 1 0
BITMAP
78
00
78
88
88
c0
30
18
88
88
f0
ENDCHAR
STARTCHAR Scedilla
ENCODING 170
SWIDTH 542 0
DWIDTH 7 0
BBX 5 12 1 -3
BITMAP
78
88
88
c0
30
18
88
88
f0
20
10
30
ENDCHAR
STARTCHAR Tcaron
ENCODING 171
SWIDTH 663 0
DWIDTH 8 0
BBX 7 11 0 0
BITMAP
3c
00
fe
10
10
10
10
10
10
10
38
ENDCHAR
STARTCHAR Zacute
ENCODING 172
SWIDTH 633 0
DWIDTH 8 0
BBX 6 11 1 0
BITMAP
70
00
fc
88
18
10
20
20
40
44
fc
ENDCHAR
STARTCHAR hyphen
ENCODING 173
SWIDTH 325 0
DWIDTH 4 0
BBX 3 1 0 3
BITMAP
e0
ENDCHAR
STARTCHAR Zcaron
ENCODING 174
SWIDTH 633 0
DWIDTH 8 0
BBX 6 11 1 0
BITMAP
78
00
fc
88
18
10
20
20
40
44
fc
ENDCHAR
STARTCHAR Zabovedot
ENCODING 175
SWIDTH 633 0
DWIDTH 8 0
BBX 6 11 1 0
BITMAP
20
00
fc
88
18
10
20
20
40
44
fc
ENDCHAR
STARTCHAR degree
ENCODING 176
SWIDTH 259 0
DWIDTH 3 0
BBX 3 2 2 7
BITMAP
e0
60
ENDCHAR
STARTCHAR aogonek
ENCODING 177
SWIDTH 543 0
DWIDTH 7 0
BBX 6 7 0 -1
BITMAP
f0
08
78
88
88
7c
30
ENDCHAR
STARTCHAR ogonek
ENCODING 178
SWIDTH 602 0
DWIDTH 7 0
BBX 2 1 3 -2
BITMAP
c0
ENDCHAR
STARTCHAR lstroke
ENCODING 179
SWIDTH 313 0
DWIDTH 4 0
BBX 3 9 0 0
BITMAP
c0
40
40
60
c0
c0
40
40
e0
ENDCHAR
STARTCHAR acute
ENCODING 180
SWIDTH 602 0
DWIDTH 7 0
BBX 3 1 2 8
BITMAP
e0
ENDCHAR
STARTCHAR lcaron
ENCODING 181
SWIDTH 416 0
DWIDTH 5 0
BBX 4 10 0 0
BITMAP
10
d0
50
40
40
40
40
40
40
e0
ENDCHAR
STARTCHAR sacute
ENCODING 182
SWIDTH 504 0
DWIDTH 6 0
BBX 5 8 1 0
BITMAP
70
00
78
88
e8
b8
88
f0
ENDCHAR
STARTCHAR caron
ENCODING 183
SWIDTH 602 0
DWIDTH 7 0
BBX 4 1 2 8
BITMAP
f0
ENDCHAR
STARTCHAR cedilla
ENCODING 184
SWIDTH 602 0
DWIDTH 7 0
BBX 2 3 3 -2
BITMAP
80
40
c0
ENDCHAR
STARTCHAR scaron
ENCODING 185
SWIDTH 504 0
DWIDTH 6 0
BBX 5 8 1 0
BITMAP
78
00
78
88
e8
b8
88
f0
ENDCHAR
STARTCHAR scedilla
ENCODING 186
SWIDTH 504 0
DWIDTH 6 0
BBX 5 9 1 -3
BITMAP
78
88
e8
b8
88
f0
20
10
30
ENDCHAR
STARTCHAR tcaron
ENCODING 187
SWIDTH 392 0
DWIDTH 5 0
BBX 4 10 0 0
BITMAP
10
10
50
40
f0
40
40
40
40
70
ENDCHAR
STARTCHAR zacute
ENCODING 188
SWIDTH 595 0
DWIDTH 7 0
BBX 5 8 1 0
BITMAP
70
00
f8
90
20
60
48
f8
ENDCHAR
STARTCHAR doubleacute
ENCODING 189
SWIDTH 602 0
DWIDTH 7 0
BBX 4 1 2 8
BITMAP
f0
ENDCHAR
STARTCHAR zcaron
ENCODING 190
SWIDTH 595 0
DWIDTH 7 0
BBX 5 8 1 0
BITMAP
78
00
f8
90
20
60
48
f8
ENDCHAR
STARTCHAR zabovedot
ENCODING 191
SWIDTH 595 0
DWIDTH 7 0
BBX 5 8 1 0
BITMAP
20
00
f8
90
20
60
48
f8
ENDCHAR
STARTCHAR Racute
ENCODING 192
SWIDTH 679 0
DWIDTH 8 0
BBX 8 11 0 0
BITMAP
70
00
f8
44
44
44
78
48
4c
44
e3
ENDCHAR
STARTCHAR Aacute
ENCODING 193
SWIDTH 744 0
DWIDTH 9 0
BBX 9 11 0 0
BITMAP
1c00
0000
0800
1800
1c00
3400
2600
3e00
4200
4100
c380
ENDCHAR
STARTCHAR Acircumflex
ENCODING 194
SWIDTH 744 0
DWIDTH 9 0
BBX 9 11 0 0
BITMAP
3c00
0000
0800
1800
1c00
3400
2600
3e00
4200
4100
c380
ENDCHAR
STARTCHAR Abreve
ENCODING 195
SWIDTH 744 0
DWIDTH 9 0
BBX 9 11 0 0
BITMAP
3c00
0000
0800
1800
1c00
3400
2600
3e00
4200
4100
c380
ENDCHAR
STARTCHAR Adiaeresis
ENCODING 196
SWIDTH 744 0
DWIDTH 9 0
BBX 9 11 0 0
BITMAP
1400
0000
0800
1800
1c00
3400
2600
3e00
4200
4100
c380
ENDCHAR
STARTCHAR Lacute
ENCODING 197
SWIDTH 557 0
DWIDTH 7 0
BBX 6 11 0 0
BITMAP
e0
00
e0
40
40
40
40
40
40
44
fc
ENDCHAR
STARTCHAR Cacute
ENCODING 198
SWIDTH 695 0
DWIDTH 8 0
BBX 7 11 1 0
BITMAP
38
00
3e
42
82
80
80
80
c0
62
3c
ENDCHAR
STARTCHAR Ccedilla
ENCODING 199
SWIDTH 695 0
DWIDTH 8 0
BBX 7 11 1 -2
BITMAP
3e
42
82
80
80
80
c0
62
3c
08
18
ENDCHAR
STARTCHAR Ccaron
ENCODING 200
SWIDTH 695 0
DWIDTH 8 0
BBX 7 11 1 0
BITMAP
3c
00
3e
42
82
80
80
80
c0
62
3c
ENDCHAR
STARTCHAR Eacute
ENCODING 201
SWIDTH 566 0
DWIDTH 7 0
BBX 6 11 0 0
BITMAP
38
00
fc
44
40
48
78
48
40
44
fc
ENDCHAR
STARTCHAR Eogonek
ENCODING 202
SWIDTH 566 0
DWIDTH 7 0
BBX 6 10 0 -1
BITMAP
fc
44
40
48
78
48
40
44
fc
30
ENDCHAR
STARTCHAR Ediaeresis
ENCODING 203
SWIDTH 566 0
DWIDTH 7 0
BBX 6 11 0 0
BITMAP
28
00
fc
44
40
48
78
48
40
44
fc
ENDCHAR
STARTCHAR Ecaron
ENCODING 204
SWIDTH 566 0
DWIDTH 7 0
BBX 6 11 0 0
BITMAP
78
00
fc
44
40
48
78
48
40
44
fc
ENDCHAR
STARTCHAR Iacute
ENCODING 205
SWIDTH 325 0
DWIDTH 4 0
BBX 3 11 0 0
BITMAP
e0
00
e0
40
40
40
40
40
40
40
e0
ENDCHAR
STARTCHAR Icircumflex
ENCODING 206
SWIDTH 325 0
DWIDTH 4 0
BBX 4 11 1 0
BITMAP
f0
00
70
20
20
20
20
20
20
20
70
ENDCHAR
STARTCHAR Dcaron
ENCODING 207
SWIDTH 768 0
DWIDTH 9 0
BBX 8 11 0 0
BITMAP
3c
00
fc
42
41
41
41
41
41
42
fc
ENDCHAR
STARTCHAR Dstroke
ENCODING 208
SWIDTH 768 0
DWIDTH 9 0
BBX 8 9 0 0
BITMAP
fc
42
41
41
f1
41
41
42
fc
ENDCHAR
STARTCHAR Nacute
ENCODING 209
SWIDTH 751 0
DWIDTH 9 0
BBX 8 11 1 0
BITMAP
38
00
c7
62
62
52
4a
4a
46
42
e2
ENDCHAR
STARTCHAR Ncaron
ENCODING 210
SWIDTH 751 0
DWIDTH 9 0
BBX 8 11 1 0
BITMAP
3c
00
c7
62
62
52
4a
4a
46
42
e2
ENDCHAR
STARTCHAR Oacute
ENCODING 211
SWIDTH 777 0
DWIDTH 9 0
BBX 8 11 1 0
BITMAP
1c
00
3c
42
81
81
81
81
81
42
3c
ENDCHAR
STARTCHAR Ocircumflex
ENCODING 212
SWIDTH 777 0
DWIDTH 9 0
BBX 8 11 1 0
BITMAP
3c
00
3c
42
81
81
81
81
81
42
3c
ENDCHAR
STARTCHAR Odoubleacute
ENCODING 213
SWIDTH 777 0
DWIDTH 9 0
BBX 8 11 1 0
BITMAP
3c
00
3c
42
81
81
81
81
81
42
3c
ENDCHAR
STARTCHAR Odiaeresis
ENCODING 214
SWIDTH 777 0
DWIDTH 9 0
BBX 8 11 1 0
BITMAP
28
00
3c
42
81
81
81
81
81
42
3c
ENDCHAR
STARTCHAR multiply
ENCODING 215
SWIDTH 608 0
DWIDTH 7 0
BBX 7 8 0 0
BITMAP
82
44
6c
38
38
28
44
82
ENDCHAR
STARTCHAR Rcaron
ENCODING 216
SWIDTH 679 0
DWIDTH 8 0
BBX 8 11 0 0
BITMAP
78
00
f8
44
44
44
78
48
4c
44
e3
ENDCHAR
STARTCHAR Uring
ENCODING 217
SWIDTH 719 0
DWIDTH 9 0
BBX 8 13 0 0
BITMAP
18
24
18
00
e7
42
42
42
42
42
42
66
3c
ENDCHAR
STARTCHAR Uacute
ENCODING 218
SWIDTH 719 0
DWIDTH 9 0
BBX 8 11 0 0
BITMAP
1c
00
e7
42
42
42
42
42
42
66
3c
ENDCHAR
STARTCHAR Udoubleacute
ENCODING 219
SWIDTH 719 0
DWIDTH 9 0
BBX 8 11 0 0
BITMAP
3c
00
e7
42
42
42
42
42
42
66
3c
ENDCHAR
STARTCHAR Udiaeresis
ENCODING 220
SWIDTH 719 0
DWIDTH 9 0
BBX 8 11 0 0
BITMAP
14
00
e7
42
42
42
42
42
42
66
3c
ENDCHAR
STARTCHAR Yacute
ENCODING 221
SWIDTH 678 0
DWIDTH 8 0
BBX 8 11 0 0
BITMAP
1c
00
e7
42
26
3c
18
10
10
10
38
ENDCHAR
STARTCHAR Tcedilla
ENCODING 222
SWIDTH 663 0
DWIDTH 8 0
BBX 7 12 0 -3
BITMAP
fe
10
10
10
10
10
10
10
38
10
08
18
ENDCHAR
STARTCHAR ssharp
ENCODING 223
SWIDTH 614 0
DWIDTH 7 0
BBX 6 9 1 0
BITMAP
78
48
48
50
50
48
44
54
f8
ENDCHAR
STARTCHAR racute
ENCODING 224
SWIDTH 440 0
DWIDTH 5 0
BBX 4 8 1 0
BITMAP
e0
00
f0
50
40
40
40
e0
ENDCHAR
STARTCHAR aacute
ENCODING 225
SWIDTH 543 0
DWIDTH 7 0
BBX 6 8 0 0
BITMAP
38
00
f0
08
78
88
88
7c
ENDCHAR
STARTCHAR acircumflex
ENCODING 226
SWIDTH 543 0
DWIDTH 7 0
BBX 6 8 0 0
BITMAP
78
00
f0
08
78
88
88
7c
ENDCHAR
STARTCHAR abreve
ENCODING 227
SWIDTH 543 0
DWIDTH 7 0
BBX 6 8 0 0
BITMAP
78
00
f0
08
78
88
88
7c
ENDCHAR
STARTCHAR adiaeresis
ENCODING 228
SWIDTH 543 0
DWIDTH 7 0
BBX 6 8 0 0
BITMAP
50
00
f0
08
78
88
88
7c
ENDCHAR
STARTCHAR lacute
ENCODING 229
SWIDTH 313 0
DWIDTH 4 0
BBX 4 11 -1 0
BITMAP
e0
00
60
20
20
20
20
20
20
20
70
ENDCHAR
STARTCHAR cacute
ENCODING 230
SWIDTH 509 0
DWIDTH 6 0
BBX 5 8 1 0
BITMAP
70
00
78
c8
80
80
c0
78
ENDCHAR
STARTCHAR ccedilla
ENCODING 231
SWIDTH 509 0
DWIDTH 6 0
BBX 5 8 1 -2
BITMAP
78
c8
80
80
c0
78
10
30
ENDCHAR
STARTCHAR ccaron
ENCODING 232
SWIDTH 509 0
DWIDTH 6 0
BBX 5 8 1 0
BITMAP
78
00
78
c8
80
80
c0
78
ENDCHAR
STARTCHAR eacute
ENCODING 233
SWIDTH 530 0
DWIDTH 6 0
BBX 5 8 1 0
BITMAP
70
00
70
88
f8
80
c0
78
ENDCHAR
STARTCHAR eogonek
ENCODING 234
SWIDTH 530 0
DWIDTH 6 0
BBX 5 7 1 -1
BITMAP
70
88
f8
80
c0
78
30
ENDCHAR
STARTCHAR ediaeresis
ENCODING 235
SWIDTH 530 0
DWIDTH 6 0
BBX 5 8 1 0
BITMAP
50
00
70
88
f8
80
c0
78
ENDCHAR
STARTCHAR ecaron
ENCODING 236
SWIDTH 530 0
DWIDTH 6 0
BBX 5 8 1 0
BITMAP
78
00
70
88
f8
80
c0
78
ENDCHAR
STARTCHAR iacute
ENCODING 237
SWIDTH 307 0
DWIDTH 4 0
BBX 3 8 0 0
BITMAP
e0
00
c0
40
40
40
40
e0
ENDCHAR
STARTCHAR icircumflex
ENCODING 238
SWIDTH 307 0
DWIDTH 4 0
BBX 4 8 1 0
BITMAP
f0
00
60
20
20
20
20
70
ENDCHAR
STARTCHAR dcaron
ENCODING 239
SWIDTH 750 0
DWIDTH 9 0
BBX 8 10 1 0
BITMAP
01
0d
05
04
7c
84
84
84
c4
7e
ENDCHAR
STARTCHAR dstroke
ENCODING 240
SWIDTH 750 0
DWIDTH 9 0
BBX 8 9 1 0
BITMAP
04
1f
04
7c
84
84
84
c4
7e
ENDCHAR
STARTCHAR nacute
ENCODING 241
SWIDTH 633 0
DWIDTH 8 0
BBX 7 8 0 0
BITMAP
70
00
fc
44
44
44
44
ee
ENDCHAR
STARTCHAR ncaron
ENCODING 242
SWIDTH 633 0
DWIDTH 8 0
BBX 7 8 0 0
BITMAP
78
00
fc
44
44
44
44
ee
ENDCHAR
STARTCHAR oacute
ENCODING 243
SWIDTH 602 0
DWIDTH 7 0
BBX 6 8 1 0
BITMAP
38
00
78
cc
84
84
cc
78
ENDCHAR
STARTCHAR ocircumflex
ENCODING 244
SWIDTH 602 0
DWIDTH 7 0
BBX 6 8 1 0
BITMAP
78
00
78
cc
84
84
cc
78
ENDCHAR
STARTCHAR odoubleacute
ENCODING 245
SWIDTH 602 0
DWIDTH 7 0
BBX 6 8 1 0
BITMAP
78
00
78
cc
84
84
cc
78
ENDCHAR
STARTCHAR odiaeresis
ENCODING 246
SWIDTH 602 0
DWIDTH 7 0
BBX 6 8 1 0
BITMAP
50
00
78
cc
84
84
cc
78
ENDCHAR
STARTCHAR division
ENCODING 247
SWIDTH 608 0
DWIDTH 7 0
BBX 7 6 0 0
BITMAP
10
00
fe
00
00
10
ENDCHAR
STARTCHAR rcaron
ENCODING 248
SWIDTH 440 0
DWIDTH 5 0
BBX 4 8 1 0
BITMAP
f0
00
f0
50
40
40
40
e0
ENDCHAR
STARTCHAR uring
ENCODING 249
SWIDTH 633 0
DWIDTH 8 0
BBX 7 10 0 0
BITMAP
30
48
30
00
cc
44
44
44
44
7e
ENDCHAR
STARTCHAR uacute
ENCODING 250
SWIDTH 633 0
DWIDTH 8 0
BBX 7 8 0 0
BITMAP
38
00
cc
44
44
44
44
7e
ENDCHAR
STARTCHAR udoubleacute
ENCODING 251
SWIDTH 633 0
DWIDTH 8 0
BBX 7 8 0 0
BITMAP
78
00
cc
44
44
44
44
7e
ENDCHAR
STARTCHAR udiaeresis
ENCODING 252
SWIDTH 633 0
DWIDTH 8 0
BBX 7 8 0 0
BITMAP
28
00
cc
44
44
44
44
7e
ENDCHAR
STARTCHAR yacute
ENCODING 253
SWIDTH 551 0
DWIDTH 7 0
BBX 7 10 0 -2
BITMAP
38
00
e6
46
64
2c
18
10
10
60
ENDCHAR
STARTCHAR tcedilla
ENCODING 254
SWIDTH 392 0
DWIDTH 5 0
BBX 4 11 0 -3
BITMAP
40
40
f0
40
40
40
40
70
40
20
60
ENDCHAR
STARTCHAR abovedot
ENCODING 255
SWIDTH 602 0
DWIDTH 7 0
BBX 1 1 3 8
BITMAP
80
ENDCHAR
ENDFONT
